<svg xmlns="http://www.w3.org/2000/svg" viewBox="0 0 500 570"><rect width="500" height="570" fill="#dbe8e1"/><circle cx="390" cy="90" r="96" fill="#f2d769"/><path d="M75 570c3-135 65-211 176-211s171 76 174 211" fill="#ef6b54"/><path d="M139 288c0-106 47-174 112-174s112 68 112 174c0 72-42 121-112 121s-112-49-112-121Z" fill="#553f35"/><ellipse cx="251" cy="245" rx="92" ry="115" fill="#a96f4b"/><path d="M154 213c18-98 80-142 145-97 40 28 54 77 45 125-19-45-54-60-96-58-39 1-71 13-94 30Z" fill="#20201e"/><circle cx="216" cy="249" r="7" fill="#20201e"/><circle cx="287" cy="249" r="7" fill="#20201e"/><path d="M224 306c20 14 37 14 56 0" fill="none" stroke="#20201e" stroke-width="6" stroke-linecap="round"/><path d="M162 466c42-47 133-57 181 0" fill="none" stroke="#f5c5a5" stroke-width="18" stroke-linecap="round"/></svg>
