<svg width="720" height="629" viewBox="0 0 720 629" fill="none" xmlns="http://www.w3.org/2000/svg">
<path fill-rule="evenodd" clip-rule="evenodd" d="M293.245 -247.339C193.99 -242.623 89.5837 -205.737 28.9813 -128.942C-27.0526 -57.9359 10.5975 42.8884 -5.40826 131.114C-18.2761 202.044 -66.3016 264.961 -55.4044 336.204C-43.3318 415.132 -4.84216 490.453 57.4683 542.186C122.729 596.368 209.165 641.895 293.245 625.671C374.739 609.947 400.125 506.823 469.751 462.635C545.931 414.287 678.747 440.785 713.569 358.913C747.682 278.71 636.043 208.257 613.692 124.209C588.933 31.1084 640.392 -81.3667 576.906 -154.976C511.135 -231.236 395.311 -252.189 293.245 -247.339Z" fill="black"/>
</svg>
